<?xml version="1.0" standalone="no"?>
<!DOCTYPE svg PUBLIC "-//W3C//DTD SVG 20010904//EN"
 "http://www.w3.org/TR/2001/REC-SVG-20010904/DTD/svg10.dtd">
<svg version="1.0" xmlns="http://www.w3.org/2000/svg"
 width="230.000000pt" height="230.000000pt" viewBox="0 0 230.000000 230.000000"
 preserveAspectRatio="xMidYMid meet">

<g transform="translate(0.000000,230.000000) scale(0.100000,-0.100000)"
fill="#000000" stroke="none">
<path d="M1053 2086 c-56 -18 -107 -51 -127 -81 -14 -22 -24 -25 -71 -25 -84
0 -105 -12 -105 -59 0 -37 -3 -41 -46 -62 -61 -29 -111 -80 -140 -143 -32 -69
-31 -77 8 -65 45 12 206 11 269 -2 l51 -11 -4 -80 c-5 -77 -4 -80 23 -103 26
-22 126 -65 150 -65 6 0 1 -12 -10 -26 -25 -32 -26 -52 -6 -81 13 -19 14 -30
3 -70 -10 -43 -39 -82 -61 -83 -17 0 -18 32 -2 50 10 11 13 20 8 20 -6 0 -16
-7 -24 -16 -11 -14 -13 -14 -22 1 -6 11 -4 22 7 34 27 30 19 55 -28 89 -25 18
-48 41 -51 52 -6 18 -9 17 -38 -14 -54 -56 -146 -66 -209 -22 -35 25 -77 89
-108 164 -18 42 -39 84 -47 92 -13 13 -16 13 -29 -4 -8 -11 -14 -42 -14 -70
l0 -51 -26 45 c-51 91 -76 121 -98 118 -19 -3 -21 -10 -21 -63 1 -55 8 -77 53
-168 2 -5 -20 10 -49 33 -144 109 -134 -42 10 -156 25 -20 38 -34 27 -30 -70
24 -108 29 -123 13 -15 -14 -15 -18 1 -42 38 -59 153 -117 256 -131 l51 -7
-62 -31 c-67 -33 -86 -53 -76 -80 8 -21 114 -22 183 -1 67 20 67 20 23 -24
-44 -44 -52 -85 -18 -96 26 -9 110 32 166 80 l41 35 -21 -50 c-20 -47 -20 -51
-4 -67 16 -16 19 -16 45 -1 15 8 41 36 59 62 17 25 33 43 36 39 2 -5 9 -27 17
-50 7 -24 34 -69 60 -101 37 -46 49 -71 59 -122 14 -70 31 -109 55 -129 12
-10 16 -34 16 -102 0 -88 0 -90 -27 -100 -16 -6 -61 -16 -102 -23 -77 -12
-111 -36 -111 -77 0 -23 -2 -23 51 1 58 26 82 26 74 0 -12 -39 6 -39 66 0 62
40 123 56 179 48 23 -4 30 -1 30 13 0 30 -26 43 -59 29 -17 -6 -35 -9 -40 -5
-7 4 -11 47 -11 109 0 88 3 105 19 120 10 10 22 34 26 54 12 72 12 72 65 72
46 0 50 -2 56 -27 13 -61 26 -91 44 -108 17 -16 20 -31 20 -114 0 -53 -4 -101
-8 -107 -4 -7 -26 -17 -50 -24 -34 -9 -46 -18 -57 -43 -7 -18 -10 -36 -6 -40
5 -5 36 5 69 22 l61 31 39 -42 c45 -48 67 -45 59 8 l-6 33 51 -20 c28 -11 59
-24 69 -29 23 -13 32 1 20 34 -13 34 -46 52 -106 60 -90 12 -85 6 -85 111 0
83 3 98 24 130 13 19 27 54 31 78 4 23 9 45 12 49 2 5 26 -25 53 -65 59 -88
102 -130 127 -125 14 3 18 12 17 39 l-1 36 33 -37 c19 -20 54 -48 78 -61 37
-19 47 -21 60 -10 22 19 20 39 -10 78 l-25 33 60 -30 c77 -39 124 -39 129 2 2
20 -5 32 -33 53 -19 15 -34 30 -32 32 3 2 24 -1 49 -6 57 -13 87 -5 95 27 8
35 -9 45 -146 88 l-115 36 40 19 c21 11 30 17 20 14 -58 -17 -230 -55 -274
-61 -49 -6 -51 -5 -66 24 -21 41 -20 52 4 52 13 0 20 -7 20 -20 0 -10 9 -24
19 -30 30 -15 34 -12 17 12 -9 12 -16 30 -16 40 0 26 33 22 45 -4 14 -32 51
-34 159 -8 108 26 136 49 136 111 0 43 -1 43 -48 30 -31 -9 -32 -9 -25 17 7
30 20 42 46 42 9 0 17 7 17 16 0 12 -6 15 -25 10 -25 -6 -25 -5 -25 53 0 54 2
60 23 63 15 2 23 11 25 30 3 26 1 27 -32 21 -32 -5 -36 -3 -56 37 -12 24 -41
64 -65 89 -23 25 -48 64 -56 86 -7 22 -21 48 -32 58 -25 22 -84 22 -122 -1
-32 -20 -79 -97 -89 -148 l-7 -31 93 14 92 15 23 -27 c32 -37 31 -87 -3 -114
-34 -27 -65 -26 -139 4 -33 14 -66 25 -73 25 -18 0 -25 -25 -13 -49 10 -18 8
-20 -16 -18 -19 1 -28 -3 -31 -16 -5 -24 15 -47 62 -68 37 -16 38 -17 17 -28
-52 -29 -5 -71 80 -71 l38 0 -24 -24 c-15 -15 -46 -29 -82 -36 -125 -26 -133
-18 -158 160 -16 107 -22 130 -34 128 -13 -3 -16 -25 -19 -131 l-3 -128 -35
-21 c-44 -26 -95 -32 -87 -11 6 16 -24 53 -43 53 -7 0 -19 -9 -27 -20 -14 -20
-15 -19 -21 17 -3 21 -6 56 -6 78 0 30 -3 36 -10 25 -6 -9 -8 -41 -4 -77 7
-70 0 -91 -23 -71 -9 7 -18 11 -20 9 -10 -8 -64 42 -91 81 -26 40 -27 47 -30
192 l-2 151 24 -62 c27 -69 99 -181 122 -190 16 -6 44 13 44 30 0 5 -8 3 -19
-7 -16 -15 -19 -15 -31 -1 -11 13 -11 19 3 33 16 15 19 14 45 -11 l28 -27 29
30 29 30 20 -20 c16 -16 18 -22 8 -32 -10 -10 -17 -10 -32 0 -24 14 -27 0 -5
-18 13 -11 21 -8 51 21 20 19 52 56 72 84 27 36 38 45 40 32 4 -21 9 -21 28
-3 14 15 9 50 -6 41 -4 -3 -11 2 -14 11 -3 8 -2 13 3 10 5 -3 14 1 21 9 16 19
30 19 30 0 0 -8 4 -15 9 -15 10 0 21 34 21 68 l0 23 -29 -20 c-16 -11 -48 -29
-72 -39 -25 -11 -51 -27 -58 -36 -12 -14 -11 -20 8 -40 20 -22 21 -23 3 -39
-16 -15 -19 -15 -31 4 -7 12 -15 19 -17 16 -3 -3 2 -16 10 -30 15 -21 15 -26
2 -36 -24 -20 -61 15 -75 71 -12 43 -11 49 9 76 l22 30 -27 35 -26 36 38 6
c130 21 389 133 387 167 -1 8 -5 74 -9 146 -6 120 -5 132 10 132 24 0 13 23
-16 31 -28 7 -13 16 36 21 46 5 40 38 -11 64 l-41 20 29 17 c56 32 17 60 -62
44 -44 -8 -54 -6 -116 24 -60 30 -78 34 -163 36 -61 2 -111 -2 -138 -11z m-85
-118 c7 -7 12 -19 12 -27 -1 -13 -3 -12 -11 2 -6 10 -20 22 -32 27 -21 8 -21
9 -1 9 11 1 25 -4 32 -11z m370 -4 c12 -8 22 -25 21 -37 l0 -22 -9 22 c-14 33
-42 43 -124 43 -76 0 -101 -8 -143 -44 -25 -22 -29 -16 -12 17 18 34 27 37
139 37 80 0 111 -4 128 -16z m-452 -36 l-6 -31 48 6 c26 3 54 2 62 -3 14 -8
-181 -19 -207 -11 -16 4 -17 43 -2 58 7 7 34 12 61 11 l50 0 -6 -30z m403 -24
c31 -26 41 -68 25 -109 -8 -19 -55 -45 -84 -45 -33 0 -80 53 -80 90 0 39 47
90 83 90 14 0 39 -12 56 -26z m119 -11 c-10 -2 -26 -2 -35 0 -10 3 -2 5 17 5
19 0 27 -2 18 -5z m65 -10 c-7 -2 -21 -2 -30 0 -10 3 -4 5 12 5 17 0 24 -2 18
-5z m-342 -171 c-7 -2 -18 1 -23 6 -8 8 -4 9 13 5 13 -4 18 -8 10 -11z m-221
-427 c7 -9 8 -15 2 -15 -5 0 -12 7 -16 15 -3 8 -4 15 -2 15 2 0 9 -7 16 -15z
m50 -35 c0 -4 -7 -13 -16 -21 -13 -10 -17 -10 -24 1 -11 18 7 41 26 33 8 -3
14 -9 14 -13z m320 -15 c-10 -12 -16 -13 -27 -3 -13 10 -12 14 3 25 24 17 42
0 24 -22z m630 -342 c0 -10 -4 -24 -9 -31 -9 -14 -160 -57 -169 -48 -3 4 2 6
10 6 9 0 29 14 45 30 15 17 37 30 48 30 11 0 31 7 45 14 14 8 26 14 28 15 1 1
2 -7 2 -16z m-242 -50 c10 -10 27 -23 38 -30 17 -11 16 -12 -14 -12 -26 -1
-34 4 -42 25 -16 41 -11 45 18 17z"/>
<path d="M1196 1884 c-20 -20 -20 -68 0 -88 24 -25 71 -20 90 9 20 31 15 60
-11 60 -13 0 -20 6 -19 18 2 22 -38 23 -60 1z"/>
<path d="M1949 1640 c-7 -22 -16 -40 -20 -40 -4 0 -5 -9 -2 -20 3 -12 0 -20
-6 -20 -7 0 -11 -6 -10 -12 1 -7 0 -20 -4 -28 -15 -41 -15 -61 0 -58 19 3 77
204 63 213 -5 3 -14 -13 -21 -35z"/>
<path d="M1921 1654 c0 -11 3 -14 6 -6 3 7 2 16 -1 19 -3 4 -6 -2 -5 -13z"/>
<path d="M1841 1600 c-8 -40 -17 -60 -27 -60 -7 0 -14 7 -14 15 0 12 -15 15
-72 15 -40 0 -90 3 -110 6 -23 4 -38 3 -38 -3 0 -6 48 -14 108 -20 l107 -10
-80 -1 c-44 -1 -99 3 -122 7 -38 7 -43 6 -43 -10 0 -21 10 -23 121 -19 37 1
70 -3 73 -8 4 -7 -17 -8 -56 -5 -52 3 -59 2 -43 -8 11 -6 34 -25 51 -41 29
-27 32 -28 80 -18 l50 11 18 92 c11 51 21 98 23 105 3 6 1 12 -5 12 -5 0 -15
-27 -21 -60z"/>
<path d="M1620 1610 c0 -5 15 -10 33 -10 24 0 28 3 17 10 -20 13 -50 13 -50 0z"/>
<path d="M1820 1322 c0 -46 4 -63 20 -77 39 -35 61 17 44 104 -6 26 -11 31
-35 31 -29 0 -29 -1 -29 -58z"/>
<path d="M1074 1036 c-12 -32 0 -61 28 -64 34 -4 54 27 38 58 -12 23 -58 27
-66 6z"/>
</g>
</svg>
